<?xml version="1.0" encoding="UTF-8"?>
<!DOCTYPE svg PUBLIC "-//W3C//DTD SVG 1.0//EN" "http://www.w3.org/TR/2001/REC-SVG-20010904/DTD/svg10.dtd">
<!-- Creator: CorelDRAW 2021 (64-Bit) -->
<svg xmlns="http://www.w3.org/2000/svg" xml:space="preserve" width="95px" height="104px" version="1.0" style="shape-rendering:geometricPrecision; text-rendering:geometricPrecision; image-rendering:optimizeQuality; fill-rule:evenodd; clip-rule:evenodd"
viewBox="0 0 2.26 2.47"
 xmlns:xlink="http://www.w3.org/1999/xlink"
 xmlns:xodm="http://www.corel.com/coreldraw/odm/2003">
 <defs>
  <style type="text/css">
   <![CDATA[
    .fil0 {fill:#6AB24F}
    .fil1 {fill:white}
    .fil2 {fill:white;fill-rule:nonzero}
   ]]>
  </style>
 </defs>
 <g id="Слой_x0020_1">
  <metadata id="CorelCorpID_0Corel-Layer"/>
  <g id="_2069383703056">
   <path class="fil0" d="M1.13 0c0.62,0 1.13,0.51 1.13,1.13 0,0.88 -0.66,0.87 -1.13,1.34 -0.47,-0.47 -1.13,-0.46 -1.13,-1.34 0,-0.62 0.51,-1.13 1.13,-1.13z"/>
   <path class="fil1" d="M1.13 0.12c0.57,0 1.02,0.45 1.02,1.02 0,0.8 -0.59,0.79 -1.02,1.22 -0.43,-0.43 -1.02,-0.42 -1.02,-1.22 0,-0.57 0.45,-1.02 1.02,-1.02zm0.68 0.34c-0.17,-0.18 -0.41,-0.29 -0.68,-0.29 -0.27,0 -0.51,0.11 -0.68,0.29 -0.18,0.17 -0.29,0.41 -0.29,0.68 0,0.51 0.27,0.68 0.57,0.86 0.13,0.08 0.27,0.16 0.4,0.28 0.13,-0.12 0.27,-0.2 0.4,-0.28 0.3,-0.18 0.57,-0.35 0.57,-0.86 0,-0.27 -0.11,-0.51 -0.29,-0.68z"/>
   <path class="fil2" d="M0.91 0.86c0.04,0 0.09,0 0.13,-0.01 0.04,0 0.08,-0.01 0.12,-0.02 0.02,-0.01 0.03,-0.02 0.05,-0.03 0.02,0 0.04,-0.01 0.05,-0.02 0.04,-0.02 0.08,-0.03 0.12,-0.03 0.04,-0.01 0.08,-0.01 0.12,0 0.01,0 0.03,0 0.05,0.01 0.01,0 0.03,0 0.04,0.01 0.03,0.02 0.06,0.04 0.07,0.06 0.02,0.03 0.03,0.05 0.03,0.09l0 0.09 0 0.1c0,0.03 -0.01,0.06 -0.02,0.08 -0.01,0.03 -0.02,0.06 -0.04,0.08 -0.03,0.05 -0.07,0.1 -0.12,0.14 -0.05,0.04 -0.1,0.07 -0.16,0.1 -0.04,0.02 -0.08,0.03 -0.12,0.04 -0.04,0.02 -0.09,0.02 -0.13,0.03 -0.03,0 -0.07,0 -0.1,0 -0.03,0 -0.07,0 -0.1,-0.01 -0.04,-0.01 -0.08,-0.02 -0.12,-0.03 -0.04,-0.02 -0.08,-0.04 -0.11,-0.07 -0.02,-0.03 -0.04,-0.05 -0.06,-0.08 -0.02,-0.03 -0.03,-0.06 -0.03,-0.09 -0.01,-0.01 -0.01,-0.02 -0.01,-0.03l0 -0.03 0 -0.17c0,-0.05 0.02,-0.1 0.05,-0.13 0.02,-0.04 0.06,-0.06 0.11,-0.07 0.03,-0.01 0.06,-0.01 0.09,-0.02 0.03,0 0.06,0 0.09,0.01zm0.4 0.58l0 0c-0.01,0 -0.01,0.01 -0.02,0.01l-0.03 0.01 -0.03 0.01c-0.01,0 -0.01,0 -0.02,0 0,0 -0.01,-0.01 -0.01,-0.01l0 0c0,-0.01 0,-0.02 0,-0.02 0,-0.01 0.01,-0.01 0.01,-0.01l0.01 -0.01c0.02,0 0.04,-0.01 0.06,-0.02 0,0 0.01,0 0.01,0 0,0 0.01,0.01 0.01,0.01 0,0 0.01,0.01 0.01,0.01 0,0 0,0.01 0,0.01l0 0 0 0.01zm-0.4 0.05c-0.01,0 -0.01,0 -0.02,-0.01 0,0 0,-0.01 0,-0.02 0,0 0,-0.01 0.01,-0.01 0.01,0 0.01,0 0.02,0 0.04,0.01 0.07,0.01 0.11,0.01 0.04,0 0.07,-0.01 0.11,-0.01 0,0 0.01,0 0.01,0 0,0 0.01,0 0.01,0 0.01,0 0.01,0.01 0.01,0.01l0 0.01c0,0.01 0,0.01 0,0.02 -0.01,0 -0.01,0 -0.02,0l-0.03 0.01c-0.07,0.01 -0.13,0.01 -0.21,-0.01zm0.48 -0.36c-0.04,0 -0.07,0 -0.11,-0.01 -0.03,-0.01 -0.06,-0.02 -0.09,-0.03 -0.01,-0.01 -0.03,-0.02 -0.04,-0.02 -0.01,-0.01 -0.03,-0.02 -0.04,-0.02 -0.01,-0.01 -0.01,-0.01 -0.02,-0.02 -0.01,0 -0.01,-0.01 -0.02,-0.01 -0.01,-0.01 -0.01,-0.02 -0.01,-0.04 0,-0.01 0.01,-0.02 0.02,-0.03 0.01,0 0.02,-0.01 0.03,-0.01 0.01,-0.01 0.03,-0.01 0.04,-0.01 0.03,-0.01 0.06,-0.01 0.08,-0.02 0.03,-0.01 0.06,-0.02 0.08,-0.04 0.02,-0.01 0.03,-0.02 0.05,-0.02 0.02,-0.01 0.03,-0.01 0.05,-0.02 0.02,0 0.04,0 0.06,0 0.01,0.01 0.03,0.01 0.05,0.02 0.02,0.01 0.04,0.02 0.05,0.04 0.01,0.02 0.01,0.04 0.01,0.07 0,0.03 -0.01,0.05 -0.03,0.08 -0.01,0.02 -0.03,0.04 -0.05,0.06 -0.01,0.01 -0.03,0.02 -0.05,0.02 -0.01,0.01 -0.03,0.01 -0.04,0.01l-0.02 0zm-0.01 -0.05l0.01 0c0,0 0.01,0 0.01,0l0.01 0c0.02,0 0.04,0 0.06,-0.02 0.02,-0.01 0.03,-0.03 0.04,-0.04 0.01,-0.02 0.02,-0.04 0.02,-0.05 0,-0.02 0,-0.04 0,-0.05 -0.01,-0.02 -0.02,-0.03 -0.04,-0.03 -0.01,-0.01 -0.02,-0.01 -0.04,-0.01 -0.01,0 -0.02,0 -0.04,0 -0.02,0 -0.05,0.02 -0.07,0.03l-0.01 0.01c-0.03,0.01 -0.05,0.02 -0.08,0.03 -0.03,0.01 -0.06,0.02 -0.09,0.02 0,0 -0.01,0.01 -0.02,0.01 -0.01,0 -0.02,0 -0.02,0.01l-0.01 0 0.01 0 0 0.01c0.01,0 0.01,0.01 0.01,0.01l0.01 0c0.02,0.01 0.05,0.02 0.07,0.03 0.03,0.01 0.06,0.02 0.09,0.03 0.02,0.01 0.05,0.01 0.08,0.01zm-0.34 0.22c-0.04,0 -0.08,-0.01 -0.12,-0.01 -0.04,-0.01 -0.08,-0.02 -0.12,-0.05 -0.02,-0.01 -0.05,-0.02 -0.06,-0.04 -0.02,-0.02 -0.04,-0.04 -0.05,-0.07 -0.01,-0.01 -0.01,-0.02 -0.01,-0.03 0,-0.01 -0.01,-0.03 -0.01,-0.04 0.01,-0.02 0.01,-0.04 0.02,-0.06 0.02,-0.02 0.03,-0.03 0.06,-0.04 0.03,-0.01 0.07,-0.02 0.1,-0.02 0.04,0.01 0.08,0.02 0.11,0.03 0.01,0.01 0.02,0.02 0.03,0.02 0.01,0.01 0.01,0.02 0.02,0.03l0.02 0.02c0.01,0.02 0.02,0.03 0.03,0.03 0.01,0.01 0.02,0.02 0.03,0.02l0.16 0.05c0.01,0 0.02,0 0.03,0.01 0.01,0 0.02,0.01 0.03,0.01 0.01,0.01 0.02,0.01 0.02,0.02 0.01,0 0.01,0.01 0.01,0.02 0,0.01 0,0.02 0,0.03 -0.01,0.01 -0.02,0.01 -0.03,0.02 -0.02,0 -0.03,0.01 -0.05,0.01 -0.02,0.01 -0.03,0.01 -0.05,0.02 -0.03,0 -0.06,0.01 -0.08,0.01 -0.03,0.01 -0.06,0.01 -0.09,0.01zm0.25 -0.1l-0.01 0c-0.01,0 -0.02,-0.01 -0.03,-0.01 -0.03,-0.01 -0.06,-0.02 -0.09,-0.03l-0.06 -0.01c-0.03,-0.01 -0.06,-0.02 -0.08,-0.04 -0.01,-0.01 -0.01,-0.02 -0.02,-0.03 -0.01,-0.01 -0.02,-0.02 -0.02,-0.03 -0.01,-0.01 -0.02,-0.02 -0.03,-0.03 -0.01,-0.01 -0.03,-0.01 -0.04,-0.02l-0.03 0c0,0 -0.01,-0.01 -0.02,-0.01 -0.02,0 -0.04,0 -0.05,0 -0.02,0.01 -0.04,0.01 -0.05,0.02 -0.02,0.01 -0.03,0.01 -0.03,0.03 -0.01,0.01 -0.01,0.02 -0.01,0.03 0,0.02 0.01,0.04 0.02,0.06 0.01,0.01 0.02,0.03 0.04,0.04 0.02,0.02 0.05,0.04 0.07,0.05 0.03,0.01 0.06,0.02 0.09,0.02 0.06,0.01 0.11,0.01 0.17,0.01 0.05,-0.01 0.11,-0.02 0.16,-0.04 0.01,0 0.01,0 0.02,-0.01l0 0zm-0.38 -0.3l-0.06 0c-0.02,0 -0.04,0 -0.06,0 -0.02,0.01 -0.04,0.01 -0.06,0.02 -0.03,0.01 -0.06,0.02 -0.08,0.04 -0.01,0.02 -0.02,0.05 -0.03,0.08 0,0.03 0,0.05 0,0.08 0.01,0.02 0.02,0.04 0.03,0.07 0.03,0.03 0.06,0.06 0.09,0.09 0.03,0.02 0.07,0.04 0.11,0.05 0.06,0.01 0.11,0.02 0.17,0.02 0.05,0 0.11,-0.01 0.16,-0.02 0.06,-0.01 0.12,-0.03 0.17,-0.06 0.06,-0.03 0.11,-0.06 0.15,-0.1 0.03,-0.03 0.05,-0.05 0.07,-0.08 0.02,-0.03 0.04,-0.06 0.05,-0.09 0.01,-0.01 0.01,-0.02 0.01,-0.03 0,-0.01 0.01,-0.02 0.01,-0.03 0,-0.03 0,-0.06 -0.02,-0.08 -0.01,-0.02 -0.03,-0.04 -0.06,-0.05 -0.05,-0.02 -0.1,-0.02 -0.14,-0.02 -0.05,0 -0.09,0.01 -0.14,0.03 -0.02,0.01 -0.04,0.02 -0.06,0.03 -0.03,0.01 -0.05,0.02 -0.07,0.03 -0.04,0.01 -0.08,0.02 -0.12,0.02 -0.04,0.01 -0.08,0 -0.12,0zm-0.29 0.32l0 0.03c0,0.02 0,0.04 0.01,0.06 0,0.03 0.01,0.04 0.02,0.06 0.03,0.04 0.06,0.07 0.09,0.09 0.03,0.02 0.07,0.04 0.11,0.05 0.06,0.02 0.11,0.02 0.17,0.02 0.05,0 0.1,0 0.16,-0.01 0.06,-0.01 0.12,-0.04 0.18,-0.07 0.05,-0.02 0.1,-0.06 0.15,-0.11 0.02,-0.02 0.05,-0.04 0.06,-0.07 0.02,-0.02 0.04,-0.05 0.05,-0.08 0.01,-0.02 0.02,-0.04 0.02,-0.07 0,-0.01 0,-0.03 0,-0.05l0 0.01c-0.04,0.06 -0.09,0.11 -0.15,0.16 -0.05,0.04 -0.12,0.08 -0.18,0.1 -0.04,0.02 -0.08,0.03 -0.11,0.04 -0.04,0 -0.07,0.01 -0.11,0.01 -0.04,0 -0.09,0 -0.13,0 -0.04,0 -0.08,-0.01 -0.12,-0.02 -0.05,-0.01 -0.08,-0.03 -0.12,-0.05 -0.03,-0.02 -0.07,-0.05 -0.09,-0.09l-0.01 -0.01z"/>
  </g>
 </g>
</svg>
