<?xml version="1.0" encoding="UTF-8"?>
<!DOCTYPE svg PUBLIC "-//W3C//DTD SVG 1.0//EN" "http://www.w3.org/TR/2001/REC-SVG-20010904/DTD/svg10.dtd">
<!-- Creator: CorelDRAW 2021 (64-Bit) -->
<svg xmlns="http://www.w3.org/2000/svg" xml:space="preserve" width="95px" height="104px" version="1.0" style="shape-rendering:geometricPrecision; text-rendering:geometricPrecision; image-rendering:optimizeQuality; fill-rule:evenodd; clip-rule:evenodd"
viewBox="0 0 2.58 2.83"
 xmlns:xlink="http://www.w3.org/1999/xlink"
 xmlns:xodm="http://www.corel.com/coreldraw/odm/2003">
 <defs>
  <style type="text/css">
   <![CDATA[
    .str0 {stroke:white;stroke-width:0.02;stroke-miterlimit:22.9256}
    .fil0 {fill:#6AB24F}
    .fil1 {fill:white}
    .fil2 {fill:white;fill-rule:nonzero}
   ]]>
  </style>
 </defs>
 <g id="Слой_x0020_1">
  <metadata id="CorelCorpID_0Corel-Layer"/>
  <g id="_2069774778688">
   <path class="fil0" d="M1.29 0c0.71,0 1.29,0.58 1.29,1.29 0,1.01 -0.75,1 -1.29,1.54 -0.54,-0.54 -1.29,-0.53 -1.29,-1.54 0,-0.71 0.58,-1.29 1.29,-1.29z"/>
   <path class="fil1" d="M1.29 0.13c0.65,0 1.17,0.53 1.17,1.17 0,0.91 -0.68,0.91 -1.17,1.4 -0.49,-0.49 -1.17,-0.49 -1.17,-1.4 0,-0.64 0.52,-1.17 1.17,-1.17zm0.78 0.39c-0.2,-0.2 -0.47,-0.32 -0.78,-0.32 -0.3,0 -0.58,0.12 -0.78,0.32 -0.2,0.2 -0.32,0.48 -0.32,0.78 0,0.59 0.3,0.78 0.64,0.98 0.16,0.09 0.32,0.19 0.46,0.33 0.15,-0.14 0.31,-0.24 0.46,-0.33 0.34,-0.2 0.65,-0.39 0.65,-0.98 0,-0.3 -0.13,-0.58 -0.33,-0.78z"/>
   <path class="fil2 str0" d="M1.49 0.57c0.03,0 0.05,0.01 0.06,0.05 0,0.03 0.01,0.05 0.04,0.06 0.03,0.01 0.04,0.04 0.03,0.07 0,0.01 0,0.02 -0.01,0.03 0,0.01 0,0.03 0.01,0.04 0.01,0.01 0.02,0.01 0.02,0.02 0.01,0.02 0.02,0.04 0.01,0.06 -0.01,0.01 -0.01,0.03 -0.02,0.04 0,0.01 0,0.02 0,0.03 0.03,0.03 0.03,0.05 0.01,0.09 0,0 0,0 0,0 0.05,0.01 0.07,0.05 0.1,0.08 0.03,0.04 0.04,0.08 0.05,0.12 0.01,0.05 0,0.1 -0.01,0.15 -0.01,0.11 -0.03,0.23 -0.04,0.34 0,0.01 0,0.03 -0.02,0.03 -0.01,0.01 -0.02,-0.01 -0.03,-0.02 -0.07,-0.1 -0.15,-0.21 -0.23,-0.31 -0.06,-0.08 -0.08,-0.17 -0.06,-0.27 0.01,-0.03 0.01,-0.05 0.04,-0.07 0,0 0,-0.01 0,-0.01 0,-0.02 -0.01,-0.03 -0.03,-0.04 -0.03,-0.01 -0.05,-0.04 -0.05,-0.07 0,-0.01 0,-0.02 -0.01,-0.03 0,-0.01 -0.01,-0.01 -0.02,-0.01 -0.02,-0.02 -0.03,-0.05 -0.03,-0.08 0.01,-0.03 0,-0.05 -0.02,-0.07 -0.02,-0.03 -0.03,-0.06 -0.01,-0.09 0,-0.01 0.01,-0.02 0.01,-0.03 0.02,-0.01 0.02,-0.03 0.02,-0.05 0,-0.02 0,-0.03 0,-0.04 0,-0.03 0.01,-0.05 0.03,-0.05 0.02,0 0.03,-0.01 0.03,-0.02 0,0 0,-0.01 0,-0.01 0.02,-0.03 0.05,-0.05 0.08,-0.04 0.04,0.02 0.06,0.05 0.05,0.08 0,0.01 0,0.01 0,0.02zm0.19 0.56c-0.01,-0.03 -0.03,-0.04 -0.06,-0.03 -0.05,0.01 -0.1,0.02 -0.14,0.03 -0.03,0.01 -0.04,0.02 -0.04,0.04 0,0.01 -0.01,0.02 -0.01,0.03 -0.02,0.08 0,0.15 0.05,0.22 0.07,0.09 0.14,0.19 0.21,0.29 0.01,0 0.01,0.01 0.02,0.01 0.01,-0.11 0.02,-0.22 0.04,-0.34 -0.03,0.01 -0.05,0.02 -0.07,0.02 -0.01,0 -0.02,0 -0.02,-0.01 -0.01,-0.01 0,-0.02 0.01,-0.02 0.03,-0.01 0.05,-0.01 0.07,-0.02 0.01,0 0.01,-0.01 0.01,-0.01 0.01,-0.01 0.01,-0.02 0.01,-0.04 -0.01,0.01 -0.02,0.01 -0.03,0.01 -0.01,0 -0.03,0.01 -0.04,0.01 -0.01,0 -0.02,0 -0.02,-0.01 0,-0.01 0,-0.02 0.01,-0.02 0.01,0 0.01,0 0.01,-0.01 0.02,0 0.04,-0.01 0.06,-0.01 0,-0.01 0,-0.03 0,-0.04 -0.02,0 -0.04,0.01 -0.06,0.01 -0.01,0 -0.02,0 -0.02,-0.01 -0.01,-0.01 0,-0.02 0.01,-0.02 0.02,-0.01 0.03,-0.01 0.05,-0.02 0,0 -0.01,-0.01 -0.01,-0.01 -0.01,-0.02 -0.01,-0.02 -0.03,-0.02 -0.03,0.01 -0.06,0.02 -0.09,0.03 -0.01,0 -0.02,0 -0.03,-0.02 0,-0.01 0.01,-0.01 0.02,-0.02 0.03,-0.01 0.06,-0.01 0.09,-0.02zm-0.11 -0.06c0.02,0 0.03,-0.01 0.03,-0.02 0.01,-0.01 0.01,-0.02 0.01,-0.02 0.01,-0.01 0.01,-0.03 0,-0.04 -0.02,-0.02 -0.02,-0.04 -0.01,-0.06 0.01,-0.01 0.01,-0.03 0.02,-0.04 0,-0.01 0,-0.02 -0.01,-0.04 -0.03,-0.03 -0.04,-0.06 -0.02,-0.1 0,-0.02 0,-0.03 -0.02,-0.04 -0.03,-0.02 -0.05,-0.04 -0.05,-0.07 0,0 -0.01,-0.01 -0.01,-0.02 0,-0.01 0,-0.02 -0.01,-0.01 -0.01,0 -0.02,0 -0.02,0.01 -0.01,0.03 -0.01,0.05 -0.01,0.07 0,0.01 -0.01,0.02 -0.02,0.02 -0.01,0 -0.02,-0.01 -0.02,-0.02 0.01,-0.01 0.01,-0.02 0.01,-0.03 0,-0.04 0.01,-0.08 0.02,-0.11 0,-0.02 -0.01,-0.04 -0.03,-0.04 -0.02,-0.01 -0.03,0 -0.04,0.02 0,0 0,0 0,0.01 -0.01,0.02 -0.02,0.03 -0.04,0.03 -0.02,0 -0.02,0.01 -0.02,0.02 0,0.01 0,0.01 0,0.02 0.01,0.04 0.01,0.07 -0.02,0.1 -0.02,0.03 -0.02,0.04 0,0.07 0.03,0.03 0.04,0.06 0.03,0.1 -0.01,0.01 0,0.03 0.01,0.04 0.01,0 0.01,0.01 0.02,0.01 0.02,0.02 0.03,0.04 0.03,0.06 0,0.02 0,0.03 0.02,0.04 0.03,0.01 0.05,0.03 0.06,0.07 0.01,-0.01 0.02,-0.01 0.04,-0.01 -0.01,-0.01 -0.01,-0.02 -0.02,-0.03 0,-0.01 -0.01,-0.02 -0.01,-0.03 -0.01,-0.05 -0.03,-0.08 -0.08,-0.1 0,0 0,0 0,0 -0.01,-0.01 -0.01,-0.02 0,-0.03 0,-0.01 0.01,-0.01 0.02,0 0.01,0 0.02,0.01 0.03,0.01 -0.01,-0.01 -0.01,-0.02 -0.01,-0.04 0,-0.01 0,-0.02 0.02,-0.02 0.01,-0.01 0.01,0.01 0.02,0.02 0,0.03 0,0.06 0.01,0.09 0.01,0.03 0.02,0.06 0.03,0.09 0.01,0 0.01,0 0.01,0 0,-0.02 0.01,-0.03 0.01,-0.04 0,-0.01 0.01,-0.02 0.02,-0.02 0.01,0.01 0.02,0.02 0.01,0.03 0,0.02 -0.01,0.03 -0.01,0.05z"/>
   <path class="fil2 str0" d="M1.05 1.98c0.03,-0.02 0.05,-0.04 0.08,-0.06 0,0 0,0 0.01,0 0,-0.01 0.01,-0.02 0,-0.02 -0.01,-0.01 -0.01,-0.01 -0.02,-0.01 -0.03,0.02 -0.06,0.04 -0.09,0.06 -0.03,0.02 -0.05,0.01 -0.07,0 -0.02,-0.02 -0.04,-0.03 -0.04,-0.06 0,-0.01 0,-0.01 0,-0.02 0.03,-0.06 0.06,-0.11 0.1,-0.17 0,0 0,-0.01 0,-0.02 -0.01,0 -0.02,0 -0.03,0.01 -0.03,0.04 -0.06,0.09 -0.09,0.14 0,0.01 0,0.01 0,0.01 -0.05,-0.03 -0.06,-0.07 -0.05,-0.12 0.02,-0.11 0.07,-0.19 0.15,-0.27 0.03,-0.03 0.08,-0.03 0.11,0.01 0.01,0.02 0.02,0.03 0.03,0.04 -0.01,0.01 -0.03,0.03 -0.04,0.04 -0.01,0.01 -0.01,0.02 0,0.02 0.01,0.01 0.02,0.01 0.03,0 0.01,-0.02 0.03,-0.03 0.04,-0.05 0.02,-0.03 0.08,-0.05 0.12,-0.02 0.03,0.02 0.05,0.06 0.03,0.11 -0.01,0.04 -0.03,0.08 -0.05,0.12 0,0 0,0 -0.01,0 0,0.01 0,0.02 0.01,0.02 0.01,0.01 0.02,0.01 0.02,0 0.01,-0.03 0.03,-0.05 0.04,-0.08 0,-0.01 0,-0.01 0.01,-0.01 0.01,0 0.03,0 0.05,0 0.02,0 0.04,0.01 0.05,0.02 0.1,0.13 -0.2,0.3 -0.27,0.33 -0.04,0.02 -0.07,0.02 -0.11,-0.01 0,0 0,0 0,0 -0.01,-0.01 -0.01,-0.01 -0.01,-0.01zm0.33 -0.36c0,0 0,0 0,0 -0.03,0 -0.03,0 -0.03,-0.03 0.01,-0.04 0,-0.07 -0.02,-0.11 -0.02,-0.01 -0.02,-0.01 -0.01,-0.03 0.03,-0.05 0.03,-0.1 0,-0.14 -0.01,-0.03 -0.05,-0.04 -0.08,-0.01 -0.01,0.01 -0.01,0.03 0,0.04 0.03,0.06 -0.02,0.1 -0.06,0.12 -0.02,0.01 -0.03,0.01 -0.05,-0.01 -0.01,-0.03 -0.03,-0.04 -0.06,-0.05 -0.03,-0.01 -0.06,0 -0.09,0.02 -0.09,0.09 -0.14,0.19 -0.17,0.32 0,0.04 0.01,0.09 0.05,0.12 0.01,0.01 0.02,0.02 0.02,0.03 0.01,0.04 0.03,0.06 0.07,0.08 0.01,0.01 0.03,0.02 0.05,0.02 0.01,0.01 0.03,0.01 0.04,0.02 0.04,0.04 0.09,0.04 0.14,0.02 0.09,-0.04 0.28,-0.15 0.31,-0.28 0.01,-0.07 -0.03,-0.13 -0.11,-0.13zm-0.13 -0.17c0.03,-0.04 0.04,-0.08 0.02,-0.12 -0.01,0 0,-0.01 0.01,-0.02 0,0 0.01,0.01 0.02,0.01 0,0.01 0,0.02 0.01,0.03 0.01,0.04 0,0.07 -0.02,0.1 -0.02,0 -0.02,0 -0.04,0z"/>
   <path class="fil2 str0" d="M1.14 1.26c0.01,0.01 0.01,0.02 0.02,0.03 0.01,0 0.02,0.01 0.03,0 0,-0.01 0,-0.02 0,-0.03 -0.01,0 -0.01,-0.01 -0.02,-0.02 0.02,0.01 0.03,0.01 0.05,0.01 0.01,0.01 0.02,0 0.02,-0.01 0,-0.01 -0.01,-0.02 -0.02,-0.02 -0.02,0 -0.04,-0.01 -0.06,-0.01 0.11,-0.13 0.12,-0.27 0.01,-0.4 -0.1,-0.12 -0.23,-0.13 -0.37,-0.06 0,-0.02 0,-0.04 0,-0.05 0,-0.01 0,-0.02 0,-0.02 -0.01,0 -0.01,-0.01 -0.02,-0.01 -0.01,0.01 -0.01,0.01 -0.01,0.02 0,0.01 0,0.03 0,0.05 -0.01,-0.01 -0.02,-0.01 -0.02,-0.02 -0.01,-0.01 -0.02,-0.01 -0.03,0 0,0 0,0.01 0,0.02 0.01,0.01 0.01,0.01 0.02,0.02 -0.02,0 -0.03,0 -0.05,-0.01 -0.01,0 -0.02,0 -0.02,0.01 0,0.02 0.01,0.02 0.02,0.03 0.02,0 0.03,0 0.06,0.01 -0.07,0.06 -0.09,0.14 -0.09,0.23 0.01,0.06 0.03,0.12 0.08,0.17 0.08,0.09 0.23,0.13 0.37,0.05 0,0.02 0,0.04 0,0.06 0,0 0,0.01 0,0.01 0,0.01 0.01,0.01 0.02,0.01 0,0 0.01,-0.01 0.01,-0.01 0,-0.02 0,-0.04 0,-0.06zm-0.02 -0.05c-0.01,-0.01 -0.02,-0.01 -0.03,-0.01 -0.02,-0.01 -0.03,-0.02 -0.05,-0.04 -0.06,-0.05 -0.12,-0.12 -0.17,-0.19 -0.03,-0.04 -0.06,-0.09 -0.08,-0.14 0,-0.01 0,-0.02 0,-0.03 0.01,0 0.02,0 0.03,0.01 0.01,0.01 0.03,0.02 0.04,0.03 0.07,0.05 0.12,0.12 0.17,0.18 0.03,0.05 0.06,0.1 0.08,0.16 0.01,0 0.01,0.01 0.01,0.03zm-0.05 0.01c-0.03,0.01 -0.05,0.01 -0.07,0 -0.13,-0.03 -0.24,-0.18 -0.25,-0.31 0,-0.02 0,-0.05 0.01,-0.07 0.07,0.16 0.17,0.28 0.31,0.38zm-0.23 -0.44c0.03,-0.01 0.06,0 0.08,0.01 0.14,0.05 0.21,0.15 0.24,0.3 0,0.02 0,0.05 -0.01,0.07 -0.07,-0.15 -0.18,-0.28 -0.31,-0.38zm-0.13 0.13c0.03,0.17 0.12,0.29 0.29,0.35 -0.1,0.01 -0.18,-0.02 -0.24,-0.09 -0.07,-0.07 -0.08,-0.19 -0.05,-0.26zm0.48 0.19c-0.02,-0.17 -0.11,-0.29 -0.28,-0.35 0.08,-0.02 0.19,0.02 0.25,0.09 0.06,0.08 0.07,0.17 0.03,0.26z"/>
  </g>
 </g>
</svg>
