<?xml version="1.0" encoding="UTF-8"?>
<!DOCTYPE svg PUBLIC "-//W3C//DTD SVG 1.0//EN" "http://www.w3.org/TR/2001/REC-SVG-20010904/DTD/svg10.dtd">
<!-- Creator: CorelDRAW 2021 (64-Bit) -->
<svg xmlns="http://www.w3.org/2000/svg" xml:space="preserve" width="95px" height="104px" version="1.0" style="shape-rendering:geometricPrecision; text-rendering:geometricPrecision; image-rendering:optimizeQuality; fill-rule:evenodd; clip-rule:evenodd"
viewBox="0 0 2.58 2.83"
 xmlns:xlink="http://www.w3.org/1999/xlink"
 xmlns:xodm="http://www.corel.com/coreldraw/odm/2003">
 <defs>
  <style type="text/css">
   <![CDATA[
    .fil0 {fill:#6AB24F}
    .fil2 {fill:white}
    .fil1 {fill:white;fill-rule:nonzero}
   ]]>
  </style>
 </defs>
 <g id="Слой_x0020_1">
  <metadata id="CorelCorpID_0Corel-Layer"/>
  <g id="_2104705739056">
   <path class="fil0" d="M1.29 0c0.71,0 1.29,0.58 1.29,1.29 0,1.01 -0.75,1 -1.29,1.54 -0.54,-0.54 -1.29,-0.53 -1.29,-1.54 0,-0.71 0.58,-1.29 1.29,-1.29z"/>
   <path class="fil1" d="M0.61 0.75c0.03,-0.03 0.07,-0.03 0.1,-0.02 0.03,0.02 0.05,0.06 0.04,0.09 0,0.04 -0.03,0.07 -0.07,0.07 -0.04,0 -0.07,-0.02 -0.08,-0.06 -0.01,-0.02 -0.01,-0.05 0.01,-0.08zm0.53 0.99c-0.18,-0.03 -0.31,-0.13 -0.4,-0.29 0,-0.02 0,-0.03 0,-0.04 0.06,-0.11 0.15,-0.19 0.26,-0.25 0,0 0.01,-0.01 0.01,-0.01 -0.01,-0.02 -0.02,-0.04 -0.04,-0.06 -0.01,-0.03 -0.01,-0.04 0.02,-0.05 0.18,-0.07 0.37,-0.08 0.53,0.05 0.03,0.02 0.06,0.05 0.09,0.08 0.02,0.02 0.02,0.03 0,0.05 0,0 0,0.01 0,0.01 0.03,0.04 0.07,0.07 0.1,0.11 0.02,-0.02 0.03,-0.05 0.05,-0.08 0.05,-0.06 0.12,-0.09 0.2,-0.09 0.01,0 0.02,0 0.03,0.02 0,0.01 0,0.02 0,0.03 0,0.01 0,0.01 0,0.02 0,0.02 0,0.04 -0.01,0.06 -0.01,0.05 -0.04,0.09 -0.08,0.13 0,0 0,0 0,0 0.05,0.04 0.08,0.1 0.09,0.16 0,0.02 0,0.03 0,0.05 0,0.01 0,0.02 0,0.03 -0.01,0.02 -0.02,0.02 -0.03,0.02 -0.08,0 -0.15,-0.04 -0.2,-0.1 -0.02,-0.02 -0.03,-0.05 -0.05,-0.08 -0.01,0.03 -0.03,0.05 -0.05,0.07 -0.01,0.01 -0.01,0.01 -0.01,0.02 0,0.02 0,0.05 0,0.08 0,0.05 -0.04,0.08 -0.09,0.07 -0.02,0 -0.05,-0.01 -0.07,-0.01 -0.09,-0.03 -0.23,0.03 -0.35,0zm-0.1 -0.67l-0.01 0.01c0.01,0.02 0.02,0.03 0.04,0.05 0.17,-0.05 0.33,-0.03 0.48,0.06 -0.03,-0.04 -0.06,-0.06 -0.1,-0.09 -0.13,-0.07 -0.26,-0.07 -0.41,-0.03zm-0.41 0.06c0.04,-0.03 0.09,-0.02 0.12,0.03 0.02,0.04 0,0.09 -0.04,0.11 -0.05,0.02 -0.1,0 -0.11,-0.05 -0.02,-0.03 0,-0.07 0.03,-0.09zm0.11 -0.13c0,-0.04 0.04,-0.08 0.08,-0.08 0.05,0 0.08,0.04 0.08,0.08 0,0.05 -0.03,0.08 -0.08,0.08 -0.04,0 -0.08,-0.03 -0.08,-0.08zm0.21 0.37c0,0.02 -0.01,0.03 -0.03,0.03 -0.01,0 -0.02,-0.01 -0.02,-0.03 0,-0.01 0.01,-0.03 0.02,-0.03 0.02,0 0.03,0.02 0.03,0.03zm-0.13 -0.4c-0.01,0 -0.03,0.02 -0.03,0.03 0,0.02 0.02,0.03 0.03,0.03 0.02,0 0.03,-0.02 0.03,-0.03 0,-0.01 -0.02,-0.03 -0.03,-0.03zm-0.15 0.2c-0.01,0 -0.02,0.01 -0.02,0.02 0,0.02 0.01,0.03 0.02,0.03 0.02,0 0.03,-0.01 0.03,-0.02 0,-0.02 -0.01,-0.03 -0.03,-0.03zm0.03 -0.36c0,-0.02 -0.01,-0.03 -0.03,-0.03 -0.01,0 -0.02,0.01 -0.02,0.03 0,0.01 0.01,0.02 0.02,0.02 0.02,0 0.03,-0.01 0.03,-0.02zm0.29 0.82c0.11,0.06 0.22,0.08 0.34,0.06 0.16,-0.02 0.28,-0.11 0.36,-0.25 0.01,-0.01 0.01,-0.01 0,-0.02 -0.04,-0.08 -0.1,-0.14 -0.17,-0.18 -0.14,-0.09 -0.28,-0.1 -0.43,-0.06 -0.04,0.01 -0.07,0.03 -0.1,0.05 0.06,0.06 0.08,0.13 0.08,0.21 0.06,-0.01 0.1,0.01 0.12,0.07 0.01,0.04 0,0.08 -0.04,0.09 -0.04,0.03 -0.09,0.02 -0.12,-0.02 -0.01,0.02 -0.03,0.03 -0.04,0.05zm-0.05 -0.03c0.1,-0.09 0.1,-0.26 0,-0.34 -0.05,0.04 -0.09,0.08 -0.12,0.13 0.01,0 0.02,0 0.02,0 0.02,0 0.03,0.01 0.03,0.03 0,0.01 -0.01,0.03 -0.03,0.03 -0.01,0 -0.02,0 -0.03,0 0.02,0.04 0.09,0.12 0.13,0.15zm1 0.03c-0.01,-0.02 -0.01,-0.04 -0.01,-0.06 -0.02,-0.06 -0.05,-0.1 -0.11,-0.11 -0.01,-0.01 -0.02,-0.02 -0.02,-0.03 0,-0.01 0.01,-0.02 0.02,-0.03 0.01,0 0.01,0 0.02,-0.01 0.05,-0.02 0.07,-0.05 0.09,-0.1 0,-0.02 0,-0.04 0,-0.07 -0.1,0.02 -0.17,0.11 -0.17,0.21 0,0.1 0.07,0.18 0.18,0.2zm-0.87 -0.13c0,0.01 0,0.02 0,0.03 0,0.02 0.02,0.03 0.03,0.03 0.02,0 0.04,-0.01 0.04,-0.03 0,-0.02 -0.01,-0.03 -0.03,-0.03 -0.01,-0.01 -0.03,0 -0.04,0zm0.53 0.14c-0.03,0.01 -0.05,0.03 -0.08,0.05 0.02,0 0.04,0.01 0.05,0.01 0.01,0 0.03,-0.01 0.03,-0.02 0,-0.01 0,-0.03 0,-0.04z"/>
   <path class="fil2" d="M1.29 0.13c0.65,0 1.17,0.53 1.17,1.17 0,0.91 -0.68,0.91 -1.17,1.4 -0.49,-0.49 -1.17,-0.49 -1.17,-1.4 0,-0.64 0.52,-1.17 1.17,-1.17zm0.78 0.39c-0.2,-0.2 -0.47,-0.32 -0.78,-0.32 -0.3,0 -0.58,0.12 -0.78,0.32 -0.2,0.2 -0.32,0.48 -0.32,0.78 0,0.59 0.3,0.78 0.64,0.98 0.16,0.09 0.32,0.19 0.46,0.33 0.15,-0.14 0.31,-0.24 0.46,-0.33 0.34,-0.2 0.65,-0.39 0.65,-0.98 0,-0.3 -0.13,-0.58 -0.33,-0.78z"/>
  </g>
 </g>
</svg>
