<?xml version="1.0" encoding="UTF-8"?>
<!DOCTYPE svg PUBLIC "-//W3C//DTD SVG 1.0//EN" "http://www.w3.org/TR/2001/REC-SVG-20010904/DTD/svg10.dtd">
<!-- Creator: CorelDRAW 2021 (64-Bit) -->
<svg xmlns="http://www.w3.org/2000/svg" xml:space="preserve" width="95px" height="104px" version="1.0" style="shape-rendering:geometricPrecision; text-rendering:geometricPrecision; image-rendering:optimizeQuality; fill-rule:evenodd; clip-rule:evenodd"
viewBox="0 0 2.13 2.33"
 xmlns:xlink="http://www.w3.org/1999/xlink"
 xmlns:xodm="http://www.corel.com/coreldraw/odm/2003">
 <defs>
  <style type="text/css">
   <![CDATA[
    .fil0 {fill:#6AB24F}
    .fil1 {fill:white}
    .fil2 {fill:white;fill-rule:nonzero}
   ]]>
  </style>
 </defs>
 <g id="Слой_x0020_1">
  <metadata id="CorelCorpID_0Corel-Layer"/>
  <path class="fil0" d="M1.06 0c0.59,0 1.07,0.48 1.07,1.06 0,0.83 -0.63,0.82 -1.07,1.27 -0.44,-0.45 -1.06,-0.44 -1.06,-1.27 0,-0.58 0.48,-1.06 1.06,-1.06z"/>
  <path class="fil1" d="M1.06 0.11c0.53,0 0.97,0.43 0.97,0.96 0,0.75 -0.57,0.75 -0.97,1.15 -0.4,-0.4 -0.96,-0.4 -0.96,-1.15 0,-0.53 0.43,-0.96 0.96,-0.96zm0.65 0.32c-0.17,-0.17 -0.4,-0.27 -0.65,-0.27 -0.25,0 -0.48,0.1 -0.64,0.27 -0.17,0.16 -0.27,0.39 -0.27,0.64 0,0.49 0.25,0.64 0.54,0.81 0.12,0.07 0.25,0.15 0.37,0.26 0.12,-0.11 0.25,-0.19 0.38,-0.26 0.28,-0.17 0.53,-0.32 0.53,-0.81 0,-0.25 -0.1,-0.48 -0.26,-0.64z"/>
  <path class="fil2" d="M1.77 0.97c-0.01,0 -0.01,0.01 -0.01,0.01 -0.01,0.03 -0.03,0.04 -0.06,0.05 -0.06,0.01 -0.11,0.03 -0.16,0.06 -0.04,0.03 -0.08,0.05 -0.13,0.08 -0.01,0.01 -0.01,0.04 0,0.05 0.01,0 0.02,0.01 0.01,0.02 0,0.01 0,0.02 -0.02,0.02 -0.02,0 -0.05,0 -0.07,0 -0.01,0 -0.02,-0.01 -0.02,-0.01 -0.03,-0.04 -0.05,-0.07 -0.08,-0.1 -0.01,0 -0.01,-0.01 -0.02,-0.01 -0.03,0 -0.06,-0.01 -0.09,-0.02 -0.03,-0.01 -0.06,0 -0.09,0.01 0,0.01 -0.01,0.01 -0.01,0.02 -0.01,0.02 -0.03,0.04 -0.06,0.05 -0.01,0.01 -0.01,0.01 -0.01,0.02 0.01,0.01 0.01,0.01 0.01,0.02 0.01,0 0.02,0 0.03,0 0.01,0 0.02,0.01 0.02,0.02 0,0.01 -0.01,0.02 -0.02,0.02 -0.03,0 -0.06,0 -0.09,0 -0.01,0 -0.02,0 -0.03,-0.01 -0.01,-0.01 -0.08,-0.11 -0.08,-0.12 -0.02,0.03 -0.05,0.04 -0.08,0.06 -0.04,0.04 -0.09,0.05 -0.14,0.06 -0.06,0.01 -0.12,0.01 -0.18,0.01 -0.01,0 -0.02,0 -0.03,-0.01 0,-0.01 0,-0.01 0,-0.02 0.01,0 0.01,-0.01 0.02,-0.01 0.03,-0.01 0.06,-0.02 0.08,-0.04 0.05,-0.04 0.1,-0.08 0.15,-0.12 0.04,-0.03 0.08,-0.06 0.13,-0.07 0.01,0 0.01,0 0.01,0 0.01,-0.05 0.04,-0.09 0.08,-0.12 0.06,-0.05 0.13,-0.08 0.21,-0.08 0.06,-0.01 0.1,0 0.15,0.02 0.04,0.02 0.08,0.04 0.12,0.07 0.03,0.02 0.06,0.02 0.09,0.01 0.05,-0.01 0.1,-0.02 0.15,-0.03 0.06,-0.02 0.11,0 0.16,0.03 0.02,0.01 0.04,0.03 0.06,0.05 0,0 0,0.01 0,0.01zm-0.05 0c-0.01,0 -0.01,0 -0.01,0 -0.02,-0.01 -0.03,-0.03 -0.06,-0.04 -0.02,-0.01 -0.05,-0.02 -0.08,-0.01 -0.06,0.01 -0.11,0.02 -0.16,0.03 -0.04,0.02 -0.08,0.01 -0.12,-0.01 -0.03,-0.02 -0.06,-0.04 -0.09,-0.05 -0.05,-0.03 -0.09,-0.04 -0.14,-0.04 -0.1,0 -0.18,0.04 -0.24,0.11 -0.02,0.03 -0.03,0.05 -0.02,0.08 -0.04,0.01 -0.09,0.02 -0.12,0.05 -0.07,0.05 -0.13,0.1 -0.19,0.14 0,0.01 0,0.01 0,0.01 0.04,-0.01 0.07,-0.01 0.11,-0.02 0.07,-0.02 0.16,-0.08 0.21,-0.13 0.02,0.06 0.05,0.09 0.09,0.14 0,0.01 0.01,0.01 0.01,0.01 0,-0.01 0,-0.01 0,-0.01 -0.01,-0.04 -0.01,-0.05 0.03,-0.06 0.06,-0.04 0.06,-0.11 0.01,-0.14 -0.01,-0.01 -0.01,-0.02 0,-0.03 0.01,-0.02 0.02,-0.02 0.03,-0.01 0.02,0.02 0.04,0.04 0.05,0.06 0,0.01 0,0.02 0.01,0.03 0,0 0,0 0,0 0.03,-0.01 0.07,-0.01 0.1,0 0.02,0.01 0.05,0.01 0.07,0.02 0,-0.02 0.01,-0.04 0.03,-0.06 0.01,-0.01 0.02,-0.01 0.03,0 0.01,0 0.01,0.02 0.01,0.03 -0.01,0 -0.01,0 -0.01,0.01 -0.01,0.02 -0.02,0.03 0,0.05 0.02,0.02 0.04,0.05 0.06,0.08 0.01,0 0.02,0.01 0.03,0 0,-0.01 0,-0.02 0,-0.03 0,-0.02 0,-0.03 0.01,-0.03 0.05,-0.03 0.09,-0.06 0.14,-0.09 0.06,-0.03 0.12,-0.06 0.18,-0.07 0.01,-0.01 0.02,-0.01 0.03,-0.02z"/>
 </g>
</svg>
