<?xml version="1.0" encoding="UTF-8"?>
<!DOCTYPE svg PUBLIC "-//W3C//DTD SVG 1.0//EN" "http://www.w3.org/TR/2001/REC-SVG-20010904/DTD/svg10.dtd">
<!-- Creator: CorelDRAW 2021 (64-Bit) -->
<svg xmlns="http://www.w3.org/2000/svg" xml:space="preserve" width="95px" height="104px" version="1.0" style="shape-rendering:geometricPrecision; text-rendering:geometricPrecision; image-rendering:optimizeQuality; fill-rule:evenodd; clip-rule:evenodd"
viewBox="0 0 2.58 2.83"
 xmlns:xlink="http://www.w3.org/1999/xlink"
 xmlns:xodm="http://www.corel.com/coreldraw/odm/2003">
 <defs>
  <style type="text/css">
   <![CDATA[
    .fil0 {fill:#6AB24F}
    .fil2 {fill:white}
    .fil1 {fill:white;fill-rule:nonzero}
   ]]>
  </style>
 </defs>
 <g id="Слой_x0020_1">
  <metadata id="CorelCorpID_0Corel-Layer"/>
  <path class="fil0" d="M1.29 0c0.71,0 1.29,0.58 1.29,1.29 0,1.01 -0.75,1 -1.29,1.54 -0.54,-0.54 -1.29,-0.53 -1.29,-1.54 0,-0.71 0.58,-1.29 1.29,-1.29z"/>
  <path class="fil1" d="M2 1.15c-0.01,0.04 -0.05,0.09 -0.11,0.13 -0.05,0.04 -0.12,0.07 -0.18,0.07 -0.02,0.01 -0.04,0 -0.06,0 -0.02,-0.01 -0.04,-0.02 -0.06,-0.03 -0.04,-0.02 -0.07,-0.04 -0.1,-0.06l-0.03 -0.01c0,-0.01 -0.01,-0.01 -0.01,-0.02 0,0 0,-0.01 0,-0.02l0 0c0.01,0 0.01,-0.01 0.02,-0.01 0.01,0 0.01,0.01 0.02,0.01l0 0c0.02,0.02 0.05,0.03 0.07,0.05 0.03,0.01 0.06,0.03 0.08,0.04 0.03,0.01 0.05,0.01 0.07,0.01 0.03,0 0.05,-0.01 0.07,-0.02l0 0 -0.08 -0.11c0,0 -0.01,0 -0.01,0 0,-0.01 0,-0.01 -0.01,-0.01l-0.18 0c-0.01,-0.01 -0.01,-0.01 -0.02,-0.01 0,-0.01 0,-0.01 0,-0.02 0,-0.01 0,-0.01 0,-0.02 0.01,0 0.02,0 0.02,0l0.05 0c0.03,0 0.06,0 0.1,0.01 0.01,0 0.03,0 0.05,-0.01 0.01,0 0.03,-0.01 0.04,-0.02 0.02,-0.01 0.04,-0.02 0.05,-0.03l0.03 -0.02 0 0c-0.02,-0.01 -0.03,-0.01 -0.05,-0.01 -0.02,0 -0.04,0 -0.06,0.01 -0.04,0 -0.07,0 -0.11,0.01 -0.03,0.01 -0.07,0.02 -0.1,0.03l-0.01 0c0,0 -0.01,0 -0.02,0 0,0 0,-0.01 -0.01,-0.01 0,-0.01 0,-0.02 0,-0.02 0.01,-0.01 0.01,-0.01 0.02,-0.01 0.03,-0.01 0.07,-0.02 0.11,-0.03 0.03,-0.01 0.07,-0.02 0.1,-0.02 0.03,0 0.06,-0.01 0.09,0 0.03,0 0.06,0 0.09,0.01 0.01,0 0.03,0.01 0.04,0.01 0.01,0.01 0.03,0.02 0.04,0.03 0.01,0.01 0.02,0.02 0.03,0.03 0.01,0.01 0.02,0.02 0.02,0.03 0,0.01 0,0.03 0,0.04zm-1.2 0.14c0.03,0.01 0.05,0.02 0.08,0.02 0.02,0 0.05,-0.01 0.08,-0.02 0.02,-0.01 0.04,-0.02 0.06,-0.03 0.02,-0.02 0.04,-0.03 0.06,-0.04l0.01 -0.01c0,0 0,0 0.01,0 0,-0.01 0.01,-0.01 0.01,-0.01 0.01,0 0.01,0.01 0.02,0.01 0,0.01 0,0.01 0,0.02 0,0.01 0,0.01 -0.01,0.01 -0.03,0.03 -0.06,0.05 -0.1,0.07 -0.04,0.02 -0.08,0.04 -0.12,0.04 -0.03,0.01 -0.05,0 -0.08,0 -0.03,-0.01 -0.05,-0.02 -0.07,-0.03 -0.03,-0.01 -0.05,-0.03 -0.07,-0.04 -0.02,-0.02 -0.04,-0.04 -0.06,-0.06 -0.01,-0.01 -0.01,-0.02 -0.02,-0.03 -0.01,-0.02 -0.01,-0.03 -0.01,-0.04 -0.01,-0.01 -0.01,-0.03 0,-0.04 0,-0.01 0.01,-0.02 0.01,-0.03 0.02,-0.03 0.04,-0.04 0.07,-0.05 0.02,-0.01 0.04,-0.02 0.07,-0.03 0.04,0 0.08,-0.01 0.12,0 0.03,0 0.07,0 0.11,0.01 0.04,0.01 0.08,0.02 0.12,0.03l0.01 0.01c0,0 0.01,0 0.01,0 0,0 0.01,0.01 0.01,0.01 0,0.01 0,0.01 0,0.01 0,0.01 0,0.01 -0.01,0.02 0,0 0,0 -0.01,0 0,0 -0.01,0 -0.01,0 -0.02,0 -0.03,-0.01 -0.05,-0.01 -0.02,-0.01 -0.04,-0.01 -0.06,-0.02 -0.03,0 -0.06,-0.01 -0.1,-0.01 -0.03,-0.01 -0.06,-0.01 -0.1,-0.01l-0.02 0.01 0 0 0.04 0.02c0.02,0.02 0.05,0.04 0.07,0.05 0.01,0 0.01,0.01 0.01,0.01 0.01,0 0.01,0 0.01,0 0.06,0 0.11,-0.01 0.17,-0.01l0.02 0c0.01,0 0.01,0 0.02,0 0,0.01 0.01,0.01 0.01,0.02 0,0.01 -0.01,0.01 -0.01,0.02 0,0 -0.01,0 -0.02,0.01 -0.06,0 -0.12,0 -0.18,0 0,0 -0.01,0.01 -0.01,0.01 0,0 0,0 0,0l-0.09 0.11zm0.04 -0.13l-0.01 -0.01 -0.1 -0.07c-0.02,-0.01 -0.03,-0.01 -0.04,-0.01 -0.01,0 -0.02,0.01 -0.03,0.02l-0.01 0.01c-0.01,0.01 -0.02,0.02 -0.02,0.02 0,0.01 0,0.02 0.01,0.04l0 0.01 0.01 0.01c0.02,0.03 0.04,0.05 0.07,0.07l0.04 0.02 0.08 -0.11zm0.57 0.05l0.05 0.06 0 0.01 0.01 0 0.03 0.02c0.02,0.01 0.04,0.02 0.06,0.03 0.01,0 0.01,0.01 0.01,0.01 0.01,0 0.01,0.01 0.01,0.01 0.02,0.03 0.03,0.06 0.05,0.08l0 0.02c0.01,0.01 0.01,0.01 0.01,0.02 0,0.01 -0.01,0.01 -0.01,0.01l0 0.01c-0.01,0 -0.02,0 -0.02,0 -0.01,-0.01 -0.01,-0.01 -0.02,-0.02l-0.01 -0.02c-0.01,-0.02 -0.02,-0.05 -0.03,-0.07 -0.01,0 -0.01,0 -0.01,-0.01 0,0 -0.01,0 -0.01,0 -0.01,-0.01 -0.02,-0.02 -0.03,-0.02l-0.01 -0.01 0 0.01c0,0.01 0,0.02 0,0.03 0.01,0.08 0,0.16 -0.03,0.23 -0.03,0.07 -0.07,0.13 -0.14,0.18 0,0.01 0,0.01 0,0.01 0,0 -0.01,0.01 -0.01,0.01l0 0.07c0,0.01 0,0.01 0,0.02 -0.01,0 -0.01,0 -0.02,0 -0.01,0 -0.01,0 -0.02,0 0,-0.01 0,-0.02 0,-0.02l0 -0.07c0,0 0,-0.01 0,-0.01 -0.01,0 -0.01,0 -0.01,-0.01 -0.06,-0.05 -0.1,-0.11 -0.13,-0.17 -0.03,-0.07 -0.04,-0.14 -0.04,-0.22l0 -0.02 0 -0.01 0.01 -0.03 -0.06 0.03c0,0 0,0.01 0,0.01 -0.02,0.03 -0.03,0.06 -0.05,0.09 0,0.01 -0.01,0.01 -0.01,0.02 -0.01,0 -0.02,0 -0.02,-0.01l0 0c-0.01,0 -0.01,0 -0.02,-0.01 0,-0.01 0,-0.01 0.01,-0.02 0.02,-0.03 0.03,-0.07 0.05,-0.1 0,0 0.01,-0.01 0.01,-0.01 0,0 0.01,-0.01 0.01,-0.01l0.09 -0.05c0,0 0.01,0 0.01,-0.01 0.02,-0.02 0.04,-0.04 0.05,-0.06l0 0c-0.02,-0.02 -0.03,-0.05 -0.03,-0.08 0,-0.02 0.02,-0.05 0.04,-0.07 0,0 0,-0.01 0,-0.01 0,0 0,0 0,-0.01 0,-0.02 0,-0.03 0,-0.05 0.01,-0.01 0.01,-0.03 0.03,-0.05l-0.03 -0.02c-0.01,-0.01 -0.03,-0.03 -0.03,-0.05 -0.01,-0.01 -0.02,-0.03 -0.02,-0.05l0 -0.01c0,-0.01 0,-0.02 0,-0.02 0.01,0 0.01,-0.01 0.02,-0.01 0.01,0 0.01,0 0.02,0.01 0,0 0,0.01 0,0.01 0,0.03 0.01,0.05 0.03,0.07 0.01,0.01 0.03,0.03 0.05,0.04 0,0 0,0 0,0 0,0 0,0 0.01,0 0.01,0 0.02,0 0.03,0 0.01,0 0.03,0 0.04,0 0,0 0,0 0,0 0,0 0.01,0 0.01,0l0.02 -0.02c0.01,0 0.01,-0.01 0.02,-0.02 0.01,0 0.02,-0.01 0.02,-0.02 0.01,-0.02 0.01,-0.03 0.01,-0.04 0,-0.01 0,-0.02 0.01,-0.02 0,-0.01 0.01,-0.01 0.02,-0.01l0 0c0,0 0.01,0.01 0.01,0.01 0.01,0.01 0.01,0.01 0.01,0.02l0 0c-0.01,0.02 -0.01,0.04 -0.02,0.06 -0.01,0.02 -0.02,0.03 -0.03,0.05 -0.01,0 -0.02,0.01 -0.03,0.02l0 0 0.01 0.02c0.01,0.01 0.01,0.02 0.01,0.04 0.01,0.01 0.01,0.03 0,0.04 0,0.01 0,0.01 0,0.01 0,0 0,0 0,0 0.03,0.03 0.04,0.06 0.04,0.08 0,0.03 -0.01,0.06 -0.03,0.08zm-0.27 0.29c0.05,-0.02 0.1,-0.03 0.15,-0.03 0.05,0 0.1,0.01 0.15,0.03l0.01 -0.09c0,0 0,-0.01 0,-0.01 0,0 -0.01,0 -0.01,0l-0.03 -0.01c-0.02,0 -0.04,-0.01 -0.06,-0.01 -0.03,0 -0.07,0 -0.1,0 -0.04,0 -0.07,0.01 -0.11,0.02 0,0 0,0 0,0l0 0c0,0.03 0,0.05 0,0.08l0 0.02zm0.01 0.05l0.04 0.08c0,0 0,0 0,0 0,0 0,0 0.01,0 0.06,-0.02 0.12,-0.02 0.19,0 0,0 0,0 0,0l0.01 0c0,-0.02 0.01,-0.04 0.02,-0.06l0.01 -0.02c-0.04,-0.02 -0.09,-0.03 -0.14,-0.03 -0.05,0 -0.09,0.01 -0.14,0.03zm0.14 -0.34c0.02,0 0.03,0 0.05,0 0.01,-0.01 0.02,-0.02 0.03,-0.03l0 0c0.02,-0.01 0.02,-0.03 0.02,-0.04 0,-0.02 0,-0.03 -0.02,-0.05l0 0c-0.02,-0.02 -0.05,-0.03 -0.08,-0.03 -0.03,0 -0.06,0.01 -0.08,0.03l0 0c-0.01,0.02 -0.02,0.03 -0.02,0.05 0,0.01 0.01,0.03 0.02,0.04 0.01,0.01 0.02,0.02 0.04,0.03 0.01,0 0.03,0 0.04,0zm-0.15 0.14c0.05,-0.01 0.1,-0.02 0.15,-0.02 0.05,0 0.1,0.01 0.15,0.02 0,-0.02 -0.01,-0.04 -0.02,-0.06 -0.02,-0.02 -0.03,-0.03 -0.05,-0.04l0 0 -0.01 0c-0.02,0.01 -0.05,0.01 -0.07,0.01 -0.02,0 -0.04,0 -0.07,-0.01 0,0 0,0 0,0 0,0 -0.01,0 -0.01,0 -0.02,0.01 -0.03,0.02 -0.04,0.04 -0.01,0.02 -0.02,0.04 -0.03,0.06zm0.23 0.33l0 0c-0.03,-0.01 -0.05,-0.02 -0.08,-0.02 -0.02,0 -0.05,0.01 -0.08,0.02l0.08 0.08 0.08 -0.08zm-0.14 -0.65c0.02,-0.01 0.04,-0.02 0.06,-0.02 0.02,0 0.04,0.01 0.07,0.02 0,-0.02 0,-0.03 -0.01,-0.04 0,-0.01 -0.01,-0.02 -0.02,-0.02 -0.01,-0.01 -0.03,-0.01 -0.04,-0.01 -0.01,0 -0.03,0 -0.04,0.01 -0.01,0.01 -0.02,0.02 -0.02,0.03 0,0 0,0.02 0,0.03zm0.6 0.24c0.01,-0.01 0.03,-0.02 0.05,-0.04 0.02,-0.01 0.04,-0.03 0.05,-0.05 0,0 0.01,-0.01 0.01,-0.02l0.01 -0.01c0,-0.01 0,-0.02 0,-0.03 0,0 0,-0.01 -0.01,-0.02 -0.01,0 -0.02,-0.01 -0.02,-0.01l-0.03 -0.02c0,0 0,0 0,0 -0.01,0 -0.01,0 -0.01,0 -0.03,0.02 -0.06,0.04 -0.09,0.05l-0.05 0.04 0.09 0.11z"/>
  <path class="fil2" d="M1.29 0.2c-0.3,0 -0.58,0.12 -0.78,0.32 -0.2,0.2 -0.32,0.48 -0.32,0.78 0,0.59 0.3,0.78 0.64,0.98 0.16,0.09 0.32,0.19 0.46,0.33 0.15,-0.14 0.31,-0.24 0.46,-0.33 0.34,-0.2 0.65,-0.39 0.65,-0.98 0,-0.3 -0.13,-0.58 -0.33,-0.78 -0.2,-0.2 -0.47,-0.32 -0.78,-0.32zm0 2.5c0.49,-0.49 1.17,-0.49 1.17,-1.4 0,-0.64 -0.52,-1.17 -1.17,-1.17 -0.65,0 -1.17,0.53 -1.17,1.17 0,0.91 0.68,0.91 1.17,1.4z"/>
 </g>
</svg>
