<?xml version="1.0" encoding="UTF-8"?>
<!DOCTYPE svg PUBLIC "-//W3C//DTD SVG 1.0//EN" "http://www.w3.org/TR/2001/REC-SVG-20010904/DTD/svg10.dtd">
<!-- Creator: CorelDRAW 2021 (64-Bit) -->
<svg xmlns="http://www.w3.org/2000/svg" xml:space="preserve" width="95px" height="104px" version="1.0" style="shape-rendering:geometricPrecision; text-rendering:geometricPrecision; image-rendering:optimizeQuality; fill-rule:evenodd; clip-rule:evenodd"
viewBox="0 0 2.42 2.65"
 xmlns:xlink="http://www.w3.org/1999/xlink"
 xmlns:xodm="http://www.corel.com/coreldraw/odm/2003">
 <defs>
  <style type="text/css">
   <![CDATA[
    .fil0 {fill:#6AB24F}
    .fil1 {fill:white}
    .fil2 {fill:white;fill-rule:nonzero}
   ]]>
  </style>
 </defs>
 <g id="Слой_x0020_1">
  <metadata id="CorelCorpID_0Corel-Layer"/>
  <g id="_2105275748992">
   <path class="fil0" d="M1.21 0c0.67,0 1.21,0.54 1.21,1.21 0,0.94 -0.71,0.93 -1.21,1.44 -0.5,-0.51 -1.21,-0.5 -1.21,-1.44 0,-0.67 0.54,-1.21 1.21,-1.21z"/>
   <path class="fil1" d="M1.21 0.12c0.6,0 1.09,0.49 1.09,1.1 0,0.85 -0.64,0.85 -1.09,1.3 -0.46,-0.45 -1.1,-0.45 -1.1,-1.3 0,-0.61 0.49,-1.1 1.1,-1.1zm0.73 0.37c-0.19,-0.19 -0.45,-0.31 -0.73,-0.31 -0.29,0 -0.55,0.12 -0.73,0.31 -0.19,0.18 -0.31,0.44 -0.31,0.73 0,0.55 0.29,0.72 0.61,0.92 0.14,0.08 0.29,0.17 0.43,0.3 0.14,-0.13 0.28,-0.22 0.43,-0.3 0.32,-0.2 0.6,-0.37 0.6,-0.92 0,-0.29 -0.11,-0.55 -0.3,-0.73z"/>
   <path class="fil2" d="M1.18 1.45c-0.08,-0.01 -0.14,-0.04 -0.19,-0.1 -0.06,-0.06 -0.09,-0.13 -0.09,-0.21 0,-0.06 0,-0.11 0,-0.16 0,-0.06 -0.02,-0.12 -0.06,-0.17 -0.01,-0.01 -0.01,-0.02 -0.01,-0.03 0.01,-0.01 0.02,-0.02 0.03,-0.02 0.03,0 0.06,0.01 0.1,0.01 0.01,-0.04 0.03,-0.08 0.05,-0.12 0.01,-0.03 0.02,-0.03 0.05,-0.02 0.05,0.02 0.1,0.04 0.14,0.06 0.01,0 0.01,0 0.01,0 0.05,-0.02 0.1,-0.04 0.15,-0.07 0.02,0 0.04,0 0.04,0.02 0.02,0.04 0.04,0.09 0.06,0.13 0.03,0 0.06,-0.01 0.09,-0.01 0.02,0 0.03,0 0.03,0.01 0.01,0.01 0.01,0.03 0,0.04 -0.05,0.05 -0.07,0.12 -0.07,0.19 0,0.06 0,0.11 0,0.17 -0.01,0.14 -0.12,0.26 -0.26,0.27 0,0 -0.01,0.01 -0.01,0.01 0,0.06 0,0.12 0,0.18 0,0 0,0 0.01,0 0.03,-0.04 0.08,-0.05 0.13,-0.05 0.02,0 0.05,0 0.08,0 0.02,0 0.03,0.01 0.03,0.03 0,0.04 0,0.08 0,0.12 -0.02,0.09 -0.1,0.16 -0.19,0.16 -0.06,0 -0.12,0 -0.18,0 -0.1,0 -0.19,-0.09 -0.19,-0.19 0,-0.03 0,-0.06 0,-0.09 0,-0.02 0.01,-0.03 0.02,-0.03 0.04,0 0.09,0 0.13,0 0.03,0 0.06,0.02 0.09,0.05 0,0 0.01,0 0.01,0 0,-0.06 0,-0.12 0,-0.18zm-0.27 -0.63c0.01,0 0.01,0.01 0.01,0.01 0.03,0.05 0.04,0.11 0.04,0.17 0,0.05 0,0.09 0,0.14 0,0.02 0,0.04 0.01,0.06 0.03,0.12 0.14,0.2 0.27,0.19 0.11,-0.01 0.21,-0.11 0.22,-0.23 0,-0.01 -0.01,-0.01 -0.01,-0.02 -0.02,-0.03 -0.05,-0.06 -0.07,-0.09 -0.1,-0.1 -0.21,-0.17 -0.35,-0.21 -0.04,-0.01 -0.08,-0.01 -0.12,-0.02zm0.53 0.81c-0.04,0.01 -0.07,0 -0.09,0.01 -0.1,0.02 -0.12,0.11 -0.11,0.19 0.02,0 0.04,0 0.06,0 0.06,0 0.12,-0.04 0.13,-0.1 0,-0.03 0,-0.06 0.01,-0.1zm-0.26 0.2c0,-0.03 0,-0.06 0,-0.09 -0.03,-0.09 -0.11,-0.11 -0.2,-0.1 0,0.02 0,0.04 0,0.06 0.01,0.05 0.03,0.09 0.08,0.12 0.04,0.02 0.08,0.01 0.12,0.01zm0.28 -0.78c-0.01,-0.08 0,-0.16 0.04,-0.23 -0.08,0.01 -0.16,0.03 -0.23,0.07 0.07,0.04 0.13,0.1 0.19,0.16zm-0.3 -0.22c0.01,0 0.02,0 0.02,0.01 0.02,0.01 0.04,0.01 0.06,0 0.05,-0.03 0.1,-0.05 0.16,-0.06 -0.01,-0.03 -0.02,-0.06 -0.04,-0.09 -0.04,0.02 -0.08,0.03 -0.12,0.05 -0.04,0.02 -0.06,0.05 -0.08,0.09zm-0.11 -0.14c-0.01,0.03 -0.02,0.06 -0.03,0.09 0.03,0.01 0.06,0.02 0.08,0.02 0.02,-0.02 0.04,-0.04 0.06,-0.07 -0.04,-0.01 -0.07,-0.03 -0.11,-0.04z"/>
   <path class="fil2" d="M1.06 1.75c-0.01,-0.01 -0.01,-0.03 0,-0.04 0.01,-0.01 0.03,-0.01 0.04,0l0.12 0.12c0.01,0.01 0.01,0.03 0,0.04 -0.01,0.01 -0.03,0.01 -0.04,0l-0.12 -0.12z"/>
   <path class="fil2" d="M1.32 1.71c0.01,-0.01 0.03,-0.01 0.04,0 0.01,0.01 0.01,0.03 0,0.04l-0.12 0.12c-0.01,0.01 -0.03,0.01 -0.04,0 -0.01,-0.01 -0.01,-0.03 0,-0.04l0.12 -0.12z"/>
   <path class="fil2" d="M1.04 1.12c0,-0.01 0.02,-0.03 0.03,-0.02 0.02,0 0.03,0.01 0.03,0.03 0,0 -0.01,0.22 0.12,0.26 0.02,0 0.03,0.02 0.02,0.04 0,0.01 -0.02,0.02 -0.03,0.02 -0.18,-0.05 -0.17,-0.33 -0.17,-0.33z"/>
  </g>
 </g>
</svg>
