<?xml version="1.0" encoding="UTF-8"?>
<!DOCTYPE svg PUBLIC "-//W3C//DTD SVG 1.0//EN" "http://www.w3.org/TR/2001/REC-SVG-20010904/DTD/svg10.dtd">
<!-- Creator: CorelDRAW 2021 (64-Bit) -->
<svg xmlns="http://www.w3.org/2000/svg" xml:space="preserve" width="95px" height="104px" version="1.0" style="shape-rendering:geometricPrecision; text-rendering:geometricPrecision; image-rendering:optimizeQuality; fill-rule:evenodd; clip-rule:evenodd"
viewBox="0 0 2.26 2.47"
 xmlns:xlink="http://www.w3.org/1999/xlink"
 xmlns:xodm="http://www.corel.com/coreldraw/odm/2003">
 <defs>
  <style type="text/css">
   <![CDATA[
    .str0 {stroke:white;stroke-width:0.02;stroke-miterlimit:22.9256}
    .str1 {stroke:white;stroke-width:0.06;stroke-linecap:round;stroke-miterlimit:22.9256}
    .fil3 {fill:none}
    .fil0 {fill:#6AB24F}
    .fil1 {fill:white}
    .fil2 {fill:white;fill-rule:nonzero}
   ]]>
  </style>
 </defs>
 <g id="Слой_x0020_1">
  <metadata id="CorelCorpID_0Corel-Layer"/>
  <g id="_2106417590656">
   <path class="fil0" d="M1.13 0c0.62,0 1.13,0.51 1.13,1.13 0,0.88 -0.66,0.87 -1.13,1.34 -0.47,-0.47 -1.13,-0.46 -1.13,-1.34 0,-0.62 0.51,-1.13 1.13,-1.13z"/>
   <path class="fil1" d="M1.13 0.12c0.57,0 1.02,0.45 1.02,1.02 0,0.8 -0.59,0.79 -1.02,1.22 -0.43,-0.43 -1.02,-0.42 -1.02,-1.22 0,-0.57 0.45,-1.02 1.02,-1.02zm0.68 0.34c-0.17,-0.18 -0.41,-0.29 -0.68,-0.29 -0.27,0 -0.51,0.11 -0.68,0.29 -0.18,0.17 -0.29,0.41 -0.29,0.68 0,0.51 0.27,0.68 0.57,0.86 0.13,0.08 0.27,0.16 0.4,0.28 0.13,-0.12 0.27,-0.2 0.4,-0.28 0.3,-0.18 0.57,-0.35 0.57,-0.86 0,-0.27 -0.11,-0.51 -0.29,-0.68z"/>
   <path class="fil2 str0" d="M0.89 1.03c0.02,-0.04 0.04,-0.08 0.06,-0.12 0.11,-0.16 0.25,-0.28 0.42,-0.35 0.01,-0.01 0.02,-0.01 0.03,0 0.01,0 0.01,0.01 0,0.02 -0.03,0.05 -0.04,0.1 -0.05,0.15 -0.02,0.08 -0.02,0.15 -0.01,0.22 0,0.03 0.01,0.07 0.02,0.1 0,0 0,0 0,0 0,0 0,0 0,0 0.02,-0.06 0.06,-0.1 0.12,-0.12 0.02,-0.01 0.04,-0.02 0.06,-0.03 0.02,-0.01 0.03,0 0.03,0.02 0,0.02 0,0.04 0,0.07 0,0.07 -0.02,0.12 -0.08,0.17 0,0 0.01,0 0.01,0 0.05,-0.01 0.09,0 0.12,0.04 0.09,0.12 0.07,0.25 -0.02,0.34 -0.06,0.07 -0.17,0.09 -0.25,0.05 -0.01,-0.01 -0.01,0 -0.02,0 -0.03,0.08 -0.09,0.13 -0.17,0.14 -0.1,0.02 -0.22,-0.03 -0.26,-0.14 -0.01,-0.01 -0.01,-0.01 -0.02,-0.01 -0.13,0.04 -0.27,-0.04 -0.29,-0.18 -0.02,-0.06 -0.01,-0.12 0.03,-0.18 0.02,-0.05 0.06,-0.07 0.11,-0.07 0,0 0.01,0 0.01,0 0,0 0.01,0.01 0.01,0 0,0 -0.01,0 -0.01,0 -0.09,-0.05 -0.12,-0.13 -0.12,-0.23 0,-0.04 0.01,-0.07 0.01,-0.11 0,-0.02 0.01,-0.02 0.03,-0.01 0.03,0.02 0.08,0.03 0.11,0.06 0.06,0.04 0.1,0.09 0.12,0.16 0,0 0,0 0,0.01zm-0.03 0.04c0,-0.06 -0.02,-0.11 -0.06,-0.15 -0.03,-0.04 -0.09,-0.06 -0.13,-0.08 -0.01,-0.01 -0.01,-0.01 -0.01,0 0,0.03 -0.01,0.06 -0.01,0.08 0,0.03 0,0.05 0,0.07 0.03,0.09 0.09,0.14 0.18,0.16 0,0 0.01,0 0.02,-0.01 0,-0.02 0.01,-0.05 0.01,-0.07zm-0.09 0.12c-0.04,-0.02 -0.1,-0.01 -0.12,0.03 -0.03,0.04 -0.04,0.08 -0.04,0.12 0,0.07 0.02,0.13 0.07,0.18 0.06,0.04 0.12,0.06 0.19,0.04 0.01,0 0.02,-0.01 0.01,-0.02 0,-0.04 0,-0.08 0.01,-0.13 0.01,-0.03 0.03,-0.07 0.07,-0.08 0.02,-0.01 0.04,-0.02 0.06,-0.02 0.01,0 0.01,0 0.01,0 -0.01,-0.03 -0.01,-0.05 -0.03,-0.07 -0.03,-0.02 -0.06,-0.02 -0.1,-0.02 -0.03,0 -0.07,0.01 -0.1,-0.01 -0.01,-0.01 -0.02,-0.01 -0.03,-0.02zm0.55 0.06c0,0 0,0 -0.01,0 -0.03,0 -0.06,0.02 -0.08,0.06 0,0 0,0 0.01,0.01 0.04,0 0.07,0.02 0.09,0.06 0.02,0.05 0.03,0.11 0.02,0.16 0,0.01 0,0.02 0.01,0.02 0.04,0.02 0.08,0.02 0.11,0.02 0.06,-0.01 0.1,-0.03 0.13,-0.08 0,0 0,0 0,0 0.07,-0.09 0.06,-0.19 0,-0.28 -0.04,-0.04 -0.08,-0.05 -0.13,-0.02 -0.01,0.01 -0.03,0.02 -0.04,0.02 -0.02,0.02 -0.04,0.02 -0.06,0.03 -0.01,0 -0.03,-0.01 -0.05,0zm-0.04 0.37c0,0 0.01,0 0.01,-0.01 0.04,-0.06 0.05,-0.14 0.02,-0.21 -0.02,-0.04 -0.05,-0.06 -0.09,-0.06 -0.02,0.01 -0.04,0.01 -0.06,0.02 -0.02,0 -0.05,0.01 -0.08,0 -0.01,-0.01 -0.02,-0.01 -0.03,-0.01 -0.03,-0.01 -0.05,-0.01 -0.07,0 0,0 -0.01,0 -0.01,0 -0.02,0.01 -0.04,0.03 -0.05,0.05 -0.01,0.04 -0.01,0.07 -0.01,0.11 0,0.05 0.02,0.1 0.05,0.13 0.06,0.06 0.12,0.08 0.19,0.07 0.06,-0.01 0.1,-0.04 0.13,-0.09zm0.03 -1c-0.01,0 -0.01,0 -0.01,0.01 -0.17,0.09 -0.29,0.22 -0.38,0.39 -0.02,0.05 -0.04,0.11 -0.05,0.16 -0.01,0.01 -0.01,0.02 0.01,0.01 0.01,0 0.02,0 0.04,0 0.07,-0.01 0.12,0.03 0.13,0.1 0.01,0.03 0.02,0.04 0.05,0.04 0,0 0.01,0 0.01,-0.01 -0.01,-0.08 0,-0.17 0.01,-0.26 0,0 0,0 0,-0.01 -0.02,-0.03 -0.04,-0.07 -0.05,-0.1 -0.01,-0.01 -0.01,-0.02 0.01,-0.02 0.02,0 0.04,-0.01 0.06,-0.01 0.01,0 0.01,0 0.01,-0.01 0.04,-0.1 0.08,-0.2 0.15,-0.28 0,0 0.01,0 0.01,-0.01zm-0.16 0.46c-0.01,0.03 -0.01,0.05 -0.01,0.07 -0.01,0.06 -0.01,0.12 0,0.17 0,0.01 0,0.01 0.01,0.01 0.01,0 0.03,-0.01 0.05,-0.01 0,0 0,-0.01 0,-0.01 0.02,-0.05 0.06,-0.08 0.11,-0.09 0.02,0 0.04,0 0.05,0 0.01,0 0.01,0 0.01,-0.01 -0.01,-0.03 -0.02,-0.06 -0.03,-0.09 0,0 0,0 -0.01,0 -0.02,0 -0.03,0.01 -0.05,0.01 -0.05,0 -0.1,-0.01 -0.13,-0.05zm0.16 -0.1c0,-0.02 0,-0.04 0,-0.05 -0.01,-0.08 0,-0.15 0.02,-0.23 0,-0.02 0.01,-0.04 0.02,-0.06 0,-0.01 0,-0.01 0,-0.01 -0.01,-0.01 -0.01,0 -0.01,0 0,0 0,0 0,0 -0.08,0.08 -0.12,0.18 -0.16,0.28 0,0.01 0,0.01 0.01,0.01 0.05,0 0.09,0.02 0.12,0.06zm0.23 0.01c0,-0.01 0,-0.02 0,-0.03 0,-0.03 0,-0.02 -0.02,-0.02 -0.04,0.02 -0.07,0.03 -0.1,0.06 -0.04,0.05 -0.05,0.1 -0.03,0.15 0,0.01 0,0.01 0.01,0.01 0.09,-0.01 0.14,-0.08 0.14,-0.17zm-0.28 0.11c0.03,0 0.05,-0.01 0.07,-0.01 0,0 0,0 0,-0.01 0,-0.02 0,-0.04 -0.02,-0.06 -0.02,-0.04 -0.06,-0.06 -0.1,-0.07 -0.03,-0.01 -0.07,0 -0.1,0 -0.01,0 -0.01,0.01 -0.01,0.01 0.01,0.03 0.03,0.05 0.04,0.07 0.03,0.04 0.07,0.07 0.12,0.07zm0.13 0.09c0.01,0.01 0.01,0.01 0.01,0.02 0,0 0,0 0,0 0.02,-0.01 0.03,-0.02 0.05,-0.03 0,0 0,0 0,0 -0.02,0 -0.04,0.01 -0.06,0.01zm-0.58 -0.01c0,0 0,0 0,0 0.01,0 0.01,0.01 0.02,0.01 0.01,0 0.01,0 0.01,0 0,-0.01 0,-0.01 -0.01,-0.01 0,0 -0.01,0 -0.02,0z"/>
   <path class="fil2 str0" d="M0.99 1.47c-0.01,0.02 0,0.03 0,0.05 0.01,0.01 0.01,0.01 0.02,0.02 0,0.01 0,0.01 -0.01,0.02 -0.01,0 -0.01,0 -0.02,0 -0.02,-0.03 -0.03,-0.07 -0.01,-0.1 0,-0.01 0.01,-0.02 0.02,-0.02 0.01,0.01 0.01,0.02 0,0.03z"/>
   <path class="fil2 str0" d="M0.69 1.31c0.01,0 0.02,0.01 0.02,0.02 -0.02,0.02 -0.01,0.05 0,0.07 0.01,0.01 0.01,0.01 0,0.02 0,0 0,0 -0.01,0 0,0 -0.01,0 -0.01,0 -0.02,-0.03 -0.03,-0.07 -0.01,-0.1 0,-0.01 0,-0.01 0.01,-0.01z"/>
   <path class="fil3 str1" d="M0.84 1.15l-0.08 -0.14"/>
   <path class="fil3 str1" d="M1.33 1.08l-0.08 -0.04"/>
   <path class="fil3 str1" d="M1.39 1.16l0.04 -0.06"/>
  </g>
 </g>
</svg>
