<?xml version="1.0" encoding="UTF-8"?>
<!DOCTYPE svg PUBLIC "-//W3C//DTD SVG 1.0//EN" "http://www.w3.org/TR/2001/REC-SVG-20010904/DTD/svg10.dtd">
<!-- Creator: CorelDRAW 2021 (64-Bit) -->
<svg xmlns="http://www.w3.org/2000/svg" xml:space="preserve" width="95px" height="104px" version="1.0" style="shape-rendering:geometricPrecision; text-rendering:geometricPrecision; image-rendering:optimizeQuality; fill-rule:evenodd; clip-rule:evenodd"
viewBox="0 0 2.01 2.2"
 xmlns:xlink="http://www.w3.org/1999/xlink"
 xmlns:xodm="http://www.corel.com/coreldraw/odm/2003">
 <defs>
  <style type="text/css">
   <![CDATA[
    .fil0 {fill:#6AB24F}
    .fil1 {fill:white}
    .fil2 {fill:white;fill-rule:nonzero}
   ]]>
  </style>
 </defs>
 <g id="Слой_x0020_1">
  <metadata id="CorelCorpID_0Corel-Layer"/>
  <g id="_2105392731888">
   <path class="fil0" d="M1.01 0c0.55,0 1,0.45 1,1.01 0,0.78 -0.59,0.77 -1,1.19 -0.42,-0.42 -1.01,-0.41 -1.01,-1.19 0,-0.56 0.45,-1.01 1.01,-1.01z"/>
   <path class="fil1" d="M1.01 0.1c0.5,0 0.91,0.41 0.91,0.91 0,0.71 -0.53,0.71 -0.91,1.09 -0.38,-0.38 -0.92,-0.38 -0.92,-1.09 0,-0.5 0.41,-0.91 0.92,-0.91zm0.61 0.31c-0.16,-0.16 -0.38,-0.26 -0.61,-0.26 -0.24,0 -0.46,0.1 -0.61,0.26 -0.16,0.15 -0.26,0.37 -0.26,0.6 0,0.46 0.24,0.61 0.51,0.77 0.12,0.07 0.24,0.14 0.36,0.25 0.11,-0.11 0.23,-0.18 0.35,-0.25 0.27,-0.16 0.51,-0.31 0.51,-0.77 0,-0.23 -0.1,-0.45 -0.25,-0.6z"/>
   <path class="fil2" d="M0.81 0.76c-0.01,0 -0.02,0 -0.04,0 -0.01,0 -0.02,0 -0.02,-0.01 0,-0.01 0.01,-0.02 0.02,-0.02 0.09,0 0.17,0 0.25,0 0.07,0 0.15,0 0.22,0 0.01,0 0.02,0.01 0.02,0.02 0,0.01 -0.01,0.01 -0.02,0.01 -0.01,0 -0.02,0 -0.04,0 0.01,0.01 0.01,0.01 0.01,0.02 0.01,0.02 0.03,0.04 0.03,0.06 0,0.01 -0.01,0.02 -0.01,0.03 0,0.01 -0.01,0.01 -0.01,0.02 -0.01,0.01 0,0.02 0.01,0.03 0.01,0.01 0.03,0.03 0.03,0.05 0,0.02 0,0.03 0.01,0.04 0,0 0,0.01 0,0.01 0,0.01 0.01,0.01 0.02,0.02 0.04,0.02 0.06,0.06 0.08,0.1 0.02,0.04 0.03,0.09 0.04,0.14 0,0 0,0.01 0,0.02 0.01,0.01 0,0.02 0,0.03 -0.04,0.03 -0.07,0.05 -0.12,0.04 -0.01,0 -0.01,0 -0.01,0.01 -0.03,0.02 -0.06,0.03 -0.09,0.04 -0.08,0.03 -0.16,0.03 -0.24,0.03 -0.05,-0.01 -0.09,-0.01 -0.14,-0.03 -0.03,-0.01 -0.05,-0.02 -0.08,-0.04 0,-0.01 0,-0.01 -0.01,-0.01 -0.04,0.01 -0.08,-0.01 -0.12,-0.05 0,0 0,-0.01 0,-0.01 0.01,-0.05 0.02,-0.1 0.03,-0.14 0.01,-0.04 0.02,-0.07 0.05,-0.1 0.01,-0.01 0.03,-0.03 0.05,-0.04 0,0 0.01,0 0.01,-0.01 0,0 0,-0.01 0.01,-0.02 0,-0.01 0,-0.01 0,-0.02 0,-0.02 0.01,-0.03 0.02,-0.04 0.01,-0.01 0.01,-0.02 0.02,-0.02 0.01,-0.01 0.01,-0.02 0.01,-0.03 0,0 -0.01,-0.01 -0.01,-0.02 -0.01,-0.01 -0.02,-0.03 -0.01,-0.05 0.01,-0.02 0.02,-0.03 0.03,-0.05 0,0 0,0 0,-0.01zm0.11 0.43c-0.02,-0.05 -0.04,-0.11 -0.06,-0.16 0,0 -0.01,0 -0.01,0 0,0 -0.01,0 -0.01,0 -0.01,0 -0.01,0.01 -0.01,0.01 0,0.06 0,0.12 0,0.18 0,0 0,0.01 -0.01,0.02 -0.01,0.02 -0.03,0.04 -0.04,0.05 -0.02,0.02 -0.03,0.03 -0.02,0.06 0,0 0,0 0,0.01 0.01,0 0.02,0.01 0.03,0.02 0.04,0.02 0.09,0.03 0.14,0.03 0.07,0.01 0.14,0.01 0.2,-0.01 0.04,0 0.07,-0.01 0.11,-0.03 0.01,-0.01 0.02,-0.02 0.02,-0.04 -0.01,-0.01 -0.01,-0.01 -0.01,-0.02 -0.02,-0.02 -0.04,-0.05 -0.06,-0.07 0,-0.01 -0.01,-0.02 -0.01,-0.03 0,-0.05 0,-0.1 0,-0.16 0,-0.02 0,-0.02 -0.01,-0.02 -0.01,0 -0.01,0 -0.02,0.01 -0.01,0.03 -0.03,0.07 -0.04,0.11 0,0.01 -0.01,0.03 -0.01,0.04 0.02,0.01 0.03,0.03 0.03,0.05 0,0.03 0.01,0.06 0,0.09 0,0.03 -0.02,0.05 -0.06,0.05 -0.04,0.01 -0.09,0.01 -0.13,0 -0.03,0 -0.06,-0.01 -0.06,-0.04 0,-0.04 0,-0.07 0,-0.11 0,-0.02 0.02,-0.03 0.04,-0.04zm0.21 -0.43c-0.08,0 -0.17,0 -0.25,0 0,0.02 0,0.03 0.01,0.05 0,0.04 0.02,0.08 0.04,0.11 0.04,0.05 0.11,0.05 0.15,0 0.04,-0.05 0.05,-0.1 0.05,-0.16zm-0.39 0.31c-0.01,0 -0.02,0.01 -0.03,0.01 -0.02,0.03 -0.04,0.05 -0.05,0.09 -0.01,0.04 -0.02,0.09 -0.03,0.13 0,0 0,0.01 0,0.01 0.02,0.02 0.07,0.04 0.09,0.03 0.01,-0.09 0.02,-0.18 0.02,-0.27zm0.54 0c-0.01,0.09 0,0.18 0.01,0.27 0.03,0.01 0.06,0 0.09,-0.03 0,0 0,-0.01 0,-0.01 -0.01,-0.03 -0.01,-0.06 -0.02,-0.09 -0.01,-0.04 -0.02,-0.07 -0.04,-0.1 -0.01,-0.02 -0.03,-0.03 -0.04,-0.04zm-0.39 -0.03c0,0 0,0 0,0 0.02,0.05 0.04,0.09 0.06,0.14 0,0 0,0.01 0.01,0.01 0.03,0 0.06,0 0.1,0 0,0 0,-0.01 0.01,-0.01 0.01,-0.03 0.02,-0.05 0.03,-0.08 0,-0.02 0.01,-0.04 0.02,-0.06 -0.06,0.08 -0.17,0.08 -0.23,0zm0.31 -0.22c0,0 0,0 -0.01,0.01 -0.01,0.02 -0.02,0.04 -0.04,0.04 -0.01,0.01 -0.01,0.01 -0.01,0.01 -0.01,0.03 -0.03,0.05 -0.04,0.06 0,0.01 -0.01,0.01 -0.01,0.01 0.01,0.01 0.01,0.02 0.01,0.03 0,0 0.01,0.01 0.01,0.01 0.01,0 0.01,0 0.02,0 0.02,0 0.04,0.01 0.05,0.01 0.01,0 0.01,0 0.01,0 0.01,-0.01 0.02,-0.01 0.03,-0.01 0.01,0 0.01,0 0.01,-0.01 0,-0.01 0,-0.02 -0.01,-0.02 0,-0.01 -0.01,-0.01 -0.02,-0.02 -0.01,-0.01 -0.01,-0.02 -0.01,-0.03 -0.01,-0.02 0,-0.04 0.01,-0.05 0.01,-0.02 0.01,-0.03 0,-0.04zm-0.39 0c0,0.02 0,0.03 0.01,0.04 0,0.01 0.01,0.01 0.01,0.02 0.01,0.03 0,0.05 -0.02,0.06 -0.01,0.01 -0.01,0.01 -0.02,0.02 0,0.01 0,0.01 0,0.02 -0.01,0.01 0,0.01 0,0.01 0.01,0 0.02,0 0.02,0 0.01,0.01 0.02,0.01 0.03,0.01 0.02,-0.01 0.03,-0.01 0.05,-0.01 0,0 0.01,-0.01 0.01,0 0.01,0 0.01,-0.01 0.01,-0.01 0.01,-0.01 0.01,-0.02 0.01,-0.03 0,0 0,0 -0.01,-0.01 -0.01,-0.01 -0.03,-0.04 -0.04,-0.06 0,0 0,0 0,0 -0.02,-0.01 -0.03,-0.02 -0.04,-0.03 0,-0.01 -0.01,-0.02 -0.02,-0.03zm0.11 0.2c0.02,0.03 0.05,0.05 0.09,0.05 0.04,-0.01 0.06,-0.02 0.08,-0.05 -0.02,-0.01 -0.02,-0.03 -0.03,-0.05 -0.03,0.02 -0.07,0.02 -0.11,0 -0.01,0.02 -0.01,0.04 -0.03,0.05zm-0.16 0.24c0.01,-0.01 0.02,-0.02 0.03,-0.04 0,0 0.01,-0.01 0.01,-0.01 0,-0.06 0,-0.12 0,-0.18 0,0 0,0 0,-0.01 -0.01,0 -0.02,0 -0.03,0 0,0.04 0,0.08 0,0.12 0,0.04 0,0.08 -0.01,0.12zm0.45 -0.24c0,0.01 0,0.01 0,0.01 0,0.05 0.01,0.1 0,0.15 0,0.03 0.01,0.05 0.03,0.06 0,0.01 0,0.01 0.01,0.02 -0.01,-0.08 0,-0.16 -0.01,-0.24 -0.01,0 -0.02,0 -0.03,0zm-0.23 0.2c-0.01,0 -0.02,0 -0.04,0 0,0 0,0 0,0 -0.02,0 -0.03,0.01 -0.03,0.02 0,0.03 0,0.06 0,0.09 0,0.01 0.01,0.02 0.02,0.02 0.02,0 0.03,0 0.05,0 -0.06,-0.02 -0.06,-0.11 0,-0.13zm0.05 0c0.03,0.01 0.04,0.03 0.05,0.06 0,0.04 -0.02,0.06 -0.05,0.07 0,0 0,0 0,0 0.02,0 0.03,0 0.04,0 0.02,0 0.03,-0.01 0.03,-0.03 0,-0.02 0,-0.05 0,-0.07 0,-0.02 -0.01,-0.03 -0.03,-0.03 -0.01,0 -0.03,0 -0.04,0zm-0.02 0.1c0.02,0 0.03,-0.01 0.03,-0.03 0,-0.02 -0.01,-0.04 -0.03,-0.04 -0.02,0 -0.04,0.01 -0.04,0.04 0,0.02 0.01,0.03 0.04,0.03zm-0.16 -0.54c-0.01,0 -0.01,0 -0.01,0 0,0.02 0.01,0.04 0.02,0.05 0,-0.02 -0.01,-0.03 -0.01,-0.05zm0.3 0.05c0.02,-0.01 0.02,-0.03 0.02,-0.04 0,-0.01 0,-0.02 -0.01,-0.01 0,0.02 0,0.03 -0.01,0.05z"/>
   <path class="fil2" d="M1.02 0.48c0.08,0 0.16,0.07 0.17,0.17 0,0.01 0,0.03 0,0.05 -0.01,0.01 -0.01,0.01 -0.02,0.01 -0.04,-0.01 -0.07,-0.01 -0.11,-0.02 -0.05,-0.01 -0.1,0 -0.14,0 -0.03,0.01 -0.05,0.01 -0.06,0.02 -0.02,0 -0.03,0 -0.03,-0.02 -0.01,-0.07 0.02,-0.14 0.08,-0.18 0.03,-0.02 0.06,-0.03 0.11,-0.03zm0.14 0.19c0,-0.05 -0.03,-0.11 -0.08,-0.13 -0.05,-0.04 -0.12,-0.03 -0.16,0.01 -0.05,0.03 -0.07,0.09 -0.06,0.12 0.1,-0.02 0.2,-0.02 0.3,0z"/>
  </g>
 </g>
</svg>
